<?xml version="1.0" standalone="no"?>
<!DOCTYPE svg PUBLIC "-//W3C//DTD SVG 20010904//EN"
 "http://www.w3.org/TR/2001/REC-SVG-20010904/DTD/svg10.dtd">
<svg version="1.0" xmlns="http://www.w3.org/2000/svg"
 width="1024.000000pt" height="1024.000000pt" viewBox="0 0 1024.000000 1024.000000"
 preserveAspectRatio="xMidYMid meet">

<g transform="translate(0.000000,1024.000000) scale(0.100000,-0.100000)"
fill="#000000" stroke="none">
<path d="M3950 7109 c-213 -18 -464 -109 -700 -254 -159 -98 -168 -110 -228
-315 -69 -236 -258 -909 -322 -1150 -28 -107 -67 -251 -85 -320 -155 -573
-265 -1103 -265 -1274 0 -129 45 -203 160 -261 163 -83 494 -43 818 97 l92 40
0 87 c1 353 88 954 240 1646 60 273 63 285 70 285 4 0 22 -75 40 -167 40 -205
132 -618 154 -692 30 -101 69 -119 177 -82 202 69 475 280 737 570 78 87 93
109 89 130 -28 159 -242 1199 -256 1246 -82 264 -276 405 -571 417 -41 2 -109
0 -150 -3z"/>
<path d="M7140 7114 c-160 -21 -316 -67 -465 -140 -318 -154 -528 -349 -1070
-994 -667 -793 -709 -840 -882 -1002 -251 -234 -542 -397 -711 -398 -18 0 -22
-4 -18 -17 3 -10 12 -47 21 -83 43 -173 113 -349 180 -450 105 -158 247 -229
434 -217 239 15 451 174 734 552 49 66 218 314 375 550 327 493 400 592 521
707 80 76 185 148 198 135 3 -3 -11 -72 -31 -154 -163 -672 -223 -1149 -186
-1478 32 -284 153 -477 362 -579 126 -62 224 -85 383 -93 317 -14 586 68 801
245 56 46 183 197 173 206 -2 2 -35 11 -73 20 -87 21 -136 46 -180 92 -127
131 -144 378 -65 929 42 290 156 978 249 1490 41 229 43 249 29 313 -35 170
-165 286 -384 343 -79 20 -311 33 -395 23z"/>
</g>
</svg>
